<svg viewBox="0 0 120 120" xmlns="http://www.w3.org/2000/svg">
  <!-- Background with rounded corners (no stroke/border) -->
  <rect x="0" y="0" width="120" height="120" rx="20" ry="20" fill="#1e293b"/>
  
  <!-- Circuit board lines -->
  <g stroke="#475569" stroke-width="1.5" fill="none">
    <!-- Left side circuits -->
    <path d="M15 35 L30 35 L30 25"/>
    <circle cx="15" cy="35" r="2.5" fill="#475569"/>
    <circle cx="30" cy="25" r="2.5" fill="#475569"/>
    
    <path d="M15 60 L25 60"/>
    <rect x="25" y="56" width="8" height="8" fill="none"/>
    
    <path d="M15 85 L35 85 L35 95"/>
    <circle cx="15" cy="85" r="2.5" fill="#475569"/>
    <circle cx="35" cy="95" r="2.5" fill="#475569"/>
    
    <!-- Right side circuits -->
    <path d="M90 25 L90 35 L105 35"/>
    <circle cx="90" cy="25" r="2.5" fill="#475569"/>
    <circle cx="105" cy="35" r="2.5" fill="#475569"/>
    
    <path d="M95 60 L105 60"/>
    <rect x="87" y="56" width="8" height="8" fill="none"/>
    
    <path d="M85 95 L85 85 L105 85"/>
    <circle cx="85" cy="95" r="2.5" fill="#475569"/>
    <circle cx="105" cy="85" r="2.5" fill="#475569"/>
  </g>
  
  <!-- Duck body -->
  <ellipse cx="55" cy="72" rx="32" ry="24" fill="#f6c23e"/>
  
  <!-- Duck body detail (wing) -->
  <path d="M35 65 Q50 75, 70 68" stroke="#1e293b" stroke-width="2" fill="none"/>
  <path d="M38 72 Q50 80, 65 74" stroke="#1e293b" stroke-width="1.5" fill="none"/>
  
  <!-- Duck head -->
  <circle cx="72" cy="42" r="18" fill="#f6c23e"/>
  
  <!-- Duck eye -->
  <circle cx="78" cy="40" r="4" fill="#1e293b"/>
  
  <!-- Duck beak -->
  <path d="M88 45 L102 48 L88 52 Z" fill="#f97316"/>
  
  <!-- WiFi signal on wing -->
  <g stroke="white" stroke-width="2.5" fill="none" stroke-linecap="round">
    <path d="M32 52 Q40 48, 48 52"/>
    <path d="M35 58 Q40 55, 45 58"/>
    <path d="M38 64 Q40 62, 42 64"/>
  </g>
  
  <!-- Code symbols at bottom -->
  <g fill="none" stroke="#94a3b8" stroke-width="2" stroke-linecap="round" stroke-linejoin="round">
    <path d="M30 100 L22 105 L30 110"/>
    <path d="M42 100 L42 110"/>
    <line x1="50" y1="105" x2="70" y2="105"/>
    <path d="M78 100 L86 105 L78 110"/>
    <path d="M92 100 L100 105 L92 110"/>
  </g>
</svg>
